:version 1.10
:name ASF
:units
  mass 1
  length 1
  angle deg
:documentation
  ASF file generated by Kaydara
:root
  axis xyz
  order  tx ty tz rx ry rz
  position 0 0 0
  orientation 0 0 0
:bonedata
  begin
    id 1
    name RightUpLegDummy
    direction -0.718183 -0.695806 0.00816078
    length 4.904
    axis 0 0 0 xyz
  end
  begin
    id 2
    name RightUpLeg
    direction 3.53989e-006 -0.995788 0.0916897
    length 17.4976
    axis -3.49089 -0.000906621 0.000287158 xyz
    dof rx ry rz
  end
  begin
    id 3
    name RightLeg
    direction 0.00371093 -0.995096 -0.0988418
    length 16.5821
    axis 3.68512 0.0193738 -0.131023 xyz
    dof rx ry rz
  end
  begin
    id 4
    name RightFoot
    direction 0.000791514 -0.46099 0.887405
    length 3.77069
    axis 4.84075e-005 -0.120479 -0.188788 xyz
    dof rx ry rz
  end
  begin
    id 5
    name RightToes
    direction 0.00124746 -0.014064 0.9999
    length 3.85082
    axis 0.00048216 0.542163 -0.142577 xyz
    dof rx ry rz
  end
  begin
    id 6
    name SpineDummy
    direction 8.36599e-015 1 5.97571e-016
    length 4.6813
    axis 0 0 0 xyz
  end
  begin
    id 7
    name Spine
    direction -4.63632e-008 0.999988 0.00495137
    length 10.1015
    axis -0.00138897 0.000121419 3.25764e-006 xyz
    dof rx ry rz
  end
  begin
    id 8
    name Spine1
    direction 0 0 0
    length 0
    axis -0.00138896 0.000121452 2.39764e-006 xyz
    dof rx ry rz
  end
  begin
    id 9
    name HEadDummy
    direction -3.91456e-008 0.999999 0.00127422
    length 3.43865
    axis -0.00138896 0.000121452 2.39764e-006 xyz
  end
  begin
    id 10
    name HEad
    direction -0.0222688 0.980941 0.193023
    length 5.12695
    axis -0.00138895 0.000121452 2.39764e-006 xyz
    dof rx ry rz
  end
  begin
    id 11
    name LeftShoulder1Dummy
    direction 0.998891 -0.0402508 -0.0244456
    length 3.5433
    axis -0.00138896 0.000121452 2.39764e-006 xyz
  end
  begin
    id 12
    name LeftShoulder1
    direction 0.99951 -0.000327743 0.0313091
    length 4.05031
    axis -0.00138896 0.000121452 2.39764e-006 xyz
    dof rx ry rz
  end
  begin
    id 13
    name LeftArm
    direction 0.998561 -0.00100054 -0.0536182
    length 10.3537
    axis -23.1894 0.134784 0.96751 xyz
    dof rx ry rz
  end
  begin
    id 14
    name LeftForeArm
    direction 0.998903 0.00866434 0.046012
    length 8.70632
    axis -9.91835 -0.06569 -0.177792 xyz
    dof rx ry rz
  end
  begin
    id 15
    name LeftHand
    direction 0.992938 -0.0411636 0.11126
    length 5.32135
    axis -0.00960227 -0.00340091 0.185174 xyz
    dof rx ry rz
  end
  begin
    id 16
    name RightShoulderDummy
    direction -0.998891 -0.0402509 -0.0244414
    length 3.5433
    axis -0.00138896 0.000121452 2.39764e-006 xyz
  end
  begin
    id 17
    name RightShoulder
    direction -0.99951 -0.000327827 0.0313133
    length 4.05031
    axis 0.215806 0.000203644 -0.00680151 xyz
    dof rx ry rz
  end
  begin
    id 18
    name RightArm
    direction -0.998573 -0.000999583 -0.053403
    length 10.3947
    axis -23.2009 -0.134239 -0.9641 xyz
    dof rx ry rz
  end
  begin
    id 19
    name RightForeArm
    direction -0.998898 0.00868026 0.0461306
    length 8.68355
    axis -9.92322 0.0658061 0.178869 xyz
    dof rx ry rz
  end
  begin
    id 20
    name RightHand
    direction -0.992843 -0.0414603 0.112003
    length 5.28593
    axis -0.00960634 0.00330671 -0.185226 xyz
    dof rx ry rz
  end
  begin
    id 21
    name LeftUpLegDummy
    direction 0.718183 -0.695806 0.00816078
    length 4.904
    axis 0 0 0 xyz
  end
  begin
    id 22
    name LeftUpLeg
    direction -6.8115e-006 -0.995793 0.0916336
    length 17.4976
    axis -3.48766 0.00143441 -0.000523914 xyz
    dof rx ry rz
  end
  begin
    id 23
    name LeftLeg
    direction -0.00601357 -0.995091 -0.0987824
    length 16.5821
    axis 3.68177 -0.00654038 -0.00028478 xyz
    dof rx ry rz
  end
  begin
    id 24
    name LeftFoot
    direction -0.00417578 -0.460984 0.887399
    length 3.77069
    axis 1.87232e-006 4.66002e-005 -8.1837e-006 xyz
    dof rx ry rz
  end
  begin
    id 25
    name LeftToes
    direction 0.00818058 -0.00485161 0.999955
    length 3.85048
    axis 1.06246e-005 4.65855e-005 -8.18502e-006 xyz
    dof rx ry rz
  end
:hierarchy
  begin
    root RightUpLegDummy SpineDummy LeftUpLegDummy
    RightUpLegDummy RightUpLeg
    RightUpLeg RightLeg
    RightLeg RightFoot
    RightFoot RightToes
    SpineDummy Spine
    Spine Spine1
    Spine1 HEadDummy LeftShoulder1Dummy RightShoulderDummy
    HEadDummy HEad
    LeftShoulder1Dummy LeftShoulder1
    LeftShoulder1 LeftArm
    LeftArm LeftForeArm
    LeftForeArm LeftHand
    RightShoulderDummy RightShoulder
    RightShoulder RightArm
    RightArm RightForeArm
    RightForeArm RightHand
    LeftUpLegDummy LeftUpLeg
    LeftUpLeg LeftLeg
    LeftLeg LeftFoot
    LeftFoot LeftToes
  end

:SAMPLES-PER-SECOND 30
:FULLY-SPECIFIED
:DEGREES
1
root  4.60194 40.0229 1.952 -176.468 -86.5878 -179.306
RightUpLeg  -6.67976 -9.85733 -10.3069
RightLeg  2.31563 5.00224 0.703049
RightFoot  2.64705 -1.63272 13.3487
RightToes  -1.28057e-009 0 -3.6325e-017
Spine  -4.6146 0.0396759 2.5544
Spine1  8.29843 0.376126 -2.24529
HEad  -13.4196 -13.3685 7.44703
LeftShoulder1  1.86156 -5.70139 -13.2293
LeftArm  50.5104 25.7702 -38.8491
LeftForeArm  100.466 -79.7677 -51.1795
LeftHand  -0.319489 4.55212 46.0836
RightShoulder  1.39754 2.69168 15.999
RightArm  52.2158 -24.5477 30.7182
RightForeArm  102.011 80.6469 63.8875
RightHand  -3.57292 5.04881 -38.5561
LeftUpLeg  -3.16743 10.7902 10.3748
LeftLeg  2.87843 5.91396 1.50467
LeftFoot  0.0203366 1.40902 -14.0887
LeftToes  -7.27922e-012 9.28972e-011 -9.04533e-012
2
root  4.61115 40.0229 1.95372 -176.125 -86.6609 -179.652
RightUpLeg  -6.6629 -9.88645 -10.3425
RightLeg  2.29689 4.96366 0.708978
RightFoot  2.66776 -1.63322 13.3565
RightToes  -1.28057e-009 0 -3.6325e-017
Spine  -4.56361 0.0215417 2.53238
Spine1  8.23696 0.363749 -2.26511
HEad  -13.3638 -13.4324 7.51491
LeftShoulder1  1.85358 -5.67518 -13.197
LeftArm  50.5768 25.7955 -38.8476
LeftForeArm  100.391 -79.7637 -51.1236
LeftHand  -0.317944 4.57159 46.0952
RightShoulder  1.39752 2.67984 15.9781
RightArm  52.0976 -24.5856 30.8031
RightForeArm  102.115 80.6442 63.6864
RightHand  -3.60198 5.14325 -38.5246
LeftUpLeg  -3.18905 10.7572 10.3416
LeftLeg  2.85021 5.86721 1.51061
LeftFoot  0.0470846 1.41025 -14.088
LeftToes  -7.27922e-012 9.28972e-011 -9.04533e-012
3
root  4.63047 40.0229 1.95768 -175.583 -86.7891 179.803
RightUpLeg  -6.65142 -9.92521 -10.3932
RightLeg  2.29001 4.87854 0.718624
RightFoot  2.69278 -1.63387 13.3669
RightToes  -1.28057e-009 0 -3.6325e-017
Spine  -4.53475 0.0150651 2.49981
Spine1  8.22212 0.364878 -2.28282
HEad  -13.2996 -13.5637 7.63371
LeftShoulder1  1.84466 -5.65844 -13.1304
LeftArm  50.6135 25.7887 -38.886
LeftForeArm  100.484 -79.7708 -51.1608
LeftHand  -0.31771 4.58426 46.1222
RightShoulder  1.39814 2.6721 15.949
RightArm  51.918 -24.6511 30.878
RightForeArm  102.496 80.6582 63.6178
RightHand  -3.6407 5.31929 -38.3168
LeftUpLeg  -3.24 10.7057 10.2863
LeftLeg  2.81669 5.79641 1.5178
LeftFoot  0.0869118 1.41405 -14.0825
LeftToes  -7.27922e-012 9.28972e-011 -9.04533e-012
4
root  4.65009 40.0229 1.96059 -175.376 -86.8728 179.587
RightUpLeg  -6.66037 -9.92848 -10.4069
RightLeg  2.30739 4.7997 0.7082
RightFoot  2.70491 -1.63485 13.3823
RightToes  -1.28057e-009 0 -3.6325e-017
Spine  -4.59701 0.0595251 2.536
Spine1  8.3512 0.435038 -2.37586
HEad  -13.3096 -13.6511 7.75313
LeftShoulder1  1.83532 -5.6741 -12.9803
LeftArm  50.5438 25.7189 -39.0165
LeftForeArm  100.801 -79.803 -51.3537
LeftHand  -0.338138 4.53205 46.1027
RightShoulder  1.40421 2.68371 16.0204
RightArm  51.8318 -24.6816 30.7923
RightForeArm  102.952 80.6894 63.9408
RightHand  -3.65232 5.40814 -38.138
LeftUpLeg  -3.28981 10.6973 10.2651
LeftLeg  2.81973 5.74422 1.50922
LeftFoot  0.106368 1.41503 -14.0713
LeftToes  -7.27922e-012 9.28972e-011 -9.04533e-012
5
root  4.6636 40.0229 1.9609 -175.545 -86.8789 179.738
RightUpLeg  -6.67731 -9.89877 -10.3833
RightLeg  2.33348 4.76688 0.684415
RightFoot  2.70753 -1.63536 13.3904
RightToes  -1.28057e-009 0 -3.6325e-017
Spine  -4.66141 0.141834 2.61078
Spine1  8.48961 0.555657 -2.52167
HEad  -13.3465 -13.6231 7.8485
LeftShoulder1  1.82444 -5.692 -12.8067
LeftArm  50.4465 25.6558 -39.159
LeftForeArm  101.06 -79.8329 -51.5515
LeftHand  -0.369095 4.45801 46.0809
RightShoulder  1.42153 2.70902 16.2244
RightArm  51.8771 -24.6565 30.5423
RightForeArm  103.251 80.718 64.403
RightHand  -3.63795 5.32734 -38.2639
LeftUpLeg  -3.30787 10.7452 10.2947
LeftLeg  2.85149 5.69607 1.47301
LeftFoot  0.105 1.41566 -14.0701
LeftToes  -7.27922e-012 9.28972e-011 -9.04533e-012
6
root  4.67295 40.0229 1.96011 -175.551 -86.8682 179.727
RightUpLeg  -6.69132 -9.88055 -10.3708
RightLeg  2.35911 4.76325 0.669259
RightFoot  2.70625 -1.63482 13.382
RightToes  -1.28057e-009 0 -3.6325e-017
Spine  -4.67117 0.205034 2.60829
Spine1  8.54148 0.63766 -2.57681
HEad  -13.3371 -13.5124 7.90889
LeftShoulder1  1.81369 -5.66558 -12.7405
LeftArm  50.3772 25.6625 -39.2115
LeftForeArm  101.088 -79.8425 -51.6402
LeftHand  -0.363864 4.47183 46.1537
RightShoulder  1.43887 2.73684 16.4168
RightArm  51.9439 -24.585 30.3062
RightForeArm  103.394 80.7319 64.6379
RightHand  -3.62057 5.17646 -38.5956
LeftUpLeg  -3.3044 10.789 10.3215
LeftLeg  2.86628 5.65024 1.43562
LeftFoot  0.109839 1.41623 -14.0696
LeftToes  -7.27922e-012 9.28972e-011 -9.04533e-012
7
root  4.6823 40.0229 1.95882 -175.128 -86.9033 179.294
RightUpLeg  -6.69892 -9.89471 -10.3946
RightLeg  2.38479 4.74581 0.667982
RightFoot  2.7033 -1.63411 13.3706
RightToes  -1.28057e-009 0 -3.6325e-017
Spine  -4.71206 0.219466 2.50926
Spine1  8.62628 0.640942 -2.49733
HEad  -13.3149 -13.4027 7.9329
LeftShoulder1  1.80385 -5.59707 -12.7853
LeftArm  50.2756 25.7061 -39.2101
LeftForeArm  101.086 -79.8516 -51.7378
LeftHand  -0.315609 4.58894 46.3015
RightShoulder  1.44486 2.75667 16.4415
RightArm  51.9383 -24.4881 30.247
RightForeArm  103.487 80.7362 64.648
RightHand  -3.61775 5.10129 -38.8219
LeftUpLeg  -3.3108 10.7754 10.2967
LeftLeg  2.84646 5.63537 1.42977
LeftFoot  0.13468 1.41601 -14.0449
LeftToes  -7.27922e-012 9.28972e-011 -9.04533e-012
